<?xml version="1.0" standalone="no"?>
<!DOCTYPE svg PUBLIC "-//W3C//DTD SVG 20010904//EN"
 "http://www.w3.org/TR/2001/REC-SVG-20010904/DTD/svg10.dtd">
<svg version="1.0" xmlns="http://www.w3.org/2000/svg"
 width="1280.000000pt" height="128.000000pt" viewBox="0 0 1280.000000 128.000000"
 preserveAspectRatio="xMidYMid meet">
<g transform="translate(0.000000,128.000000) scale(0.100000,-0.100000)"
fill="#000000" stroke="none">
<path d="M6325 1145 c-58 -61 -79 -123 -73 -224 6 -92 37 -161 105 -229 l46
-46 44 50 c68 77 97 145 102 237 4 98 -15 154 -75 214 -59 59 -90 58 -149 -2z
m139 -28 c47 -57 56 -85 56 -171 0 -61 -5 -83 -30 -132 -16 -33 -43 -73 -60
-89 l-30 -29 -30 29 c-17 16 -44 56 -60 89 -25 50 -30 71 -30 133 0 86 14 124
62 176 48 51 77 49 122 -6z"/>
<path d="M4903 875 c-100 -31 -199 -120 -250 -224 -26 -52 -28 -65 -28 -176 0
-111 2 -124 27 -171 28 -54 87 -112 140 -140 43 -22 158 -30 230 -15 44 10 68
22 106 56 67 61 85 101 80 181 -7 120 -87 194 -209 194 -57 0 -71 -4 -107 -30
-46 -33 -62 -57 -62 -94 0 -34 14 -40 36 -15 77 85 216 73 265 -23 42 -81 10
-175 -78 -230 -32 -19 -51 -23 -123 -23 -80 0 -88 2 -132 33 -35 24 -55 49
-80 99 -31 64 -33 73 -33 178 0 96 3 116 25 160 36 74 114 148 183 173 173 65
295 27 636 -197 282 -185 498 -279 723 -316 117 -19 179 -19 296 0 226 37 440
130 722 315 342 225 464 263 637 198 69 -25 147 -99 183 -173 22 -44 25 -64
25 -160 0 -105 -2 -114 -33 -178 -25 -50 -45 -75 -80 -99 -44 -31 -52 -33
-132 -33 -96 0 -139 18 -187 81 -78 103 -6 254 122 254 40 0 101 -27 129 -59
22 -25 36 -19 36 15 0 37 -16 61 -62 94 -36 26 -50 30 -107 30 -122 0 -202
-74 -209 -194 -5 -80 13 -120 80 -181 58 -52 126 -71 230 -62 86 7 143 33 190
85 72 80 83 112 83 247 0 111 -2 124 -28 177 -56 114 -150 193 -263 223 -161
42 -330 -10 -559 -171 -316 -221 -518 -322 -744 -370 -88 -18 -259 -18 -361 2
-190 36 -423 145 -662 311 -180 126 -329 206 -418 227 -79 19 -180 19 -237 1z"/>
<path d="M5782 842 c-13 -4 -23 -11 -24 -16 0 -5 28 -32 63 -60 35 -29 108
-104 161 -168 146 -174 223 -221 383 -234 86 -7 199 15 260 50 23 14 83 69
131 122 125 136 213 224 257 258 59 43 40 51 -121 51 -164 0 -168 -2 -356
-129 -71 -47 -132 -86 -136 -86 -6 0 -51 29 -225 147 -33 22 -76 46 -95 53
-40 14 -263 23 -298 12z m258 -40 c30 -12 87 -46 125 -77 109 -85 215 -155
235 -155 20 0 126 70 235 155 86 68 157 96 257 103 116 7 122 0 57 -56 -30
-26 -104 -95 -165 -153 -61 -59 -128 -118 -150 -132 -121 -79 -346 -79 -467
-1 -21 14 -94 78 -162 144 -68 65 -143 133 -165 151 -29 24 -37 35 -28 41 23
16 169 2 228 -20z"/>
<path d="M4417 522 c-46 -48 -34 -117 24 -148 62 -32 129 11 129 82 0 83 -97
125 -153 66z"/>
<path d="M8250 514 c-26 -30 -31 -42 -26 -68 16 -78 113 -110 162 -53 36 42
33 98 -7 131 -46 39 -89 35 -129 -10z"/>
<path d="M35 491 c-35 -7 -45 -40 -19 -62 25 -20 4256 -21 4292 -1 33 19 26
55 -13 63 -39 9 -4221 9 -4260 0z"/>
<path d="M8505 491 c-39 -8 -46 -44 -13 -63 19 -11 406 -13 2138 -13 1163 0
2128 4 2143 8 23 6 28 12 25 35 -3 24 -8 28 -53 34 -64 8 -4200 8 -4240 -1z"/>
<path d="M5520 431 c-73 -23 -170 -98 -170 -132 0 -10 14 -29 31 -43 26 -22
40 -26 92 -26 60 0 218 33 302 63 22 8 73 20 113 27 51 8 72 16 72 26 0 18
-91 60 -174 79 -64 15 -223 19 -266 6z m310 -55 c63 -15 74 -11 -130 -55 -164
-35 -250 -45 -270 -31 -13 9 -10 15 18 39 18 16 54 36 80 44 59 20 226 21 302
3z"/>
<path d="M7002 425 c-74 -21 -162 -64 -162 -80 0 -9 25 -17 72 -25 40 -7 91
-19 113 -27 84 -30 242 -63 302 -63 52 0 66 4 92 26 17 14 31 34 31 44 0 21
-73 91 -121 116 -47 24 -252 30 -327 9z m301 -65 c26 -13 55 -32 64 -42 40
-45 -44 -46 -237 -2 -58 12 -129 26 -157 30 -125 16 -17 44 157 41 109 -3 131
-6 173 -27z"/>
</g>
</svg>
